<mxfile host="app.diagrams.net" modified="2022-12-04T14:25:22.951Z" agent="5.0 (Windows NT 10.0; Win64; x64) AppleWebKit/537.36 (KHTML, like Gecko) Chrome/106.0.0.0 YaBrowser/22.11.0.2500 Yowser/2.5 Safari/537.36" etag="QDdmGezdX0O52aVQK2Ub" version="20.6.0" type="github">
  <diagram id="C5RBs43oDa-KdzZeNtuy" name="Page-1">
    <mxGraphModel dx="1972" dy="666" grid="1" gridSize="10" guides="1" tooltips="1" connect="1" arrows="1" fold="1" page="1" pageScale="1" pageWidth="827" pageHeight="1169" math="0" shadow="0">
      <root>
        <mxCell id="WIyWlLk6GJQsqaUBKTNV-0" />
        <mxCell id="WIyWlLk6GJQsqaUBKTNV-1" parent="WIyWlLk6GJQsqaUBKTNV-0" />
        <mxCell id="LoI_WJfmr40ua0TBdkT--2" value="" style="edgeStyle=orthogonalEdgeStyle;rounded=0;orthogonalLoop=1;jettySize=auto;html=1;" edge="1" parent="WIyWlLk6GJQsqaUBKTNV-1" source="LoI_WJfmr40ua0TBdkT--0" target="LoI_WJfmr40ua0TBdkT--1">
          <mxGeometry relative="1" as="geometry" />
        </mxCell>
        <mxCell id="LoI_WJfmr40ua0TBdkT--0" value="&lt;font style=&quot;font-size: 14px;&quot;&gt;НАЧАЛО&lt;/font&gt;" style="strokeWidth=2;html=1;shape=mxgraph.flowchart.terminator;whiteSpace=wrap;" vertex="1" parent="WIyWlLk6GJQsqaUBKTNV-1">
          <mxGeometry x="-170" y="80" width="140" height="60" as="geometry" />
        </mxCell>
        <mxCell id="LoI_WJfmr40ua0TBdkT--4" value="" style="edgeStyle=orthogonalEdgeStyle;rounded=0;orthogonalLoop=1;jettySize=auto;html=1;" edge="1" parent="WIyWlLk6GJQsqaUBKTNV-1" source="LoI_WJfmr40ua0TBdkT--1" target="LoI_WJfmr40ua0TBdkT--3">
          <mxGeometry relative="1" as="geometry" />
        </mxCell>
        <mxCell id="LoI_WJfmr40ua0TBdkT--1" value="&lt;font style=&quot;font-size: 14px;&quot;&gt;h=h/9999&lt;/font&gt;" style="whiteSpace=wrap;html=1;strokeWidth=2;" vertex="1" parent="WIyWlLk6GJQsqaUBKTNV-1">
          <mxGeometry x="-170" y="170" width="140" height="60" as="geometry" />
        </mxCell>
        <mxCell id="LoI_WJfmr40ua0TBdkT--6" value="" style="edgeStyle=orthogonalEdgeStyle;rounded=0;orthogonalLoop=1;jettySize=auto;html=1;" edge="1" parent="WIyWlLk6GJQsqaUBKTNV-1" source="LoI_WJfmr40ua0TBdkT--3" target="LoI_WJfmr40ua0TBdkT--5">
          <mxGeometry relative="1" as="geometry" />
        </mxCell>
        <mxCell id="LoI_WJfmr40ua0TBdkT--3" value="&lt;font style=&quot;font-size: 14px;&quot;&gt;n=(b-a)/h&lt;/font&gt;" style="whiteSpace=wrap;html=1;strokeWidth=2;" vertex="1" parent="WIyWlLk6GJQsqaUBKTNV-1">
          <mxGeometry x="-170" y="260" width="140" height="60" as="geometry" />
        </mxCell>
        <mxCell id="LoI_WJfmr40ua0TBdkT--22" style="edgeStyle=orthogonalEdgeStyle;rounded=0;orthogonalLoop=1;jettySize=auto;html=1;exitX=0.5;exitY=1;exitDx=0;exitDy=0;entryX=0.5;entryY=0;entryDx=0;entryDy=0;entryPerimeter=0;fontSize=14;" edge="1" parent="WIyWlLk6GJQsqaUBKTNV-1" source="LoI_WJfmr40ua0TBdkT--5" target="LoI_WJfmr40ua0TBdkT--7">
          <mxGeometry relative="1" as="geometry" />
        </mxCell>
        <mxCell id="LoI_WJfmr40ua0TBdkT--5" value="&lt;font style=&quot;font-size: 14px;&quot;&gt;absol=h*(f(a)+f(b))/2&lt;/font&gt;" style="whiteSpace=wrap;html=1;strokeWidth=2;" vertex="1" parent="WIyWlLk6GJQsqaUBKTNV-1">
          <mxGeometry x="-170" y="350" width="140" height="60" as="geometry" />
        </mxCell>
        <mxCell id="LoI_WJfmr40ua0TBdkT--10" value="" style="edgeStyle=orthogonalEdgeStyle;rounded=0;orthogonalLoop=1;jettySize=auto;html=1;" edge="1" parent="WIyWlLk6GJQsqaUBKTNV-1" source="LoI_WJfmr40ua0TBdkT--7" target="LoI_WJfmr40ua0TBdkT--9">
          <mxGeometry relative="1" as="geometry" />
        </mxCell>
        <mxCell id="LoI_WJfmr40ua0TBdkT--7" value="&lt;font style=&quot;font-size: 14px;&quot;&gt;цикл 1 начало&lt;br&gt;i=1, i&amp;lt;=n-1,i++&lt;/font&gt;" style="strokeWidth=2;html=1;shape=mxgraph.flowchart.loop_limit;whiteSpace=wrap;" vertex="1" parent="WIyWlLk6GJQsqaUBKTNV-1">
          <mxGeometry x="90" y="90" width="140" height="60" as="geometry" />
        </mxCell>
        <mxCell id="LoI_WJfmr40ua0TBdkT--12" value="" style="edgeStyle=orthogonalEdgeStyle;rounded=0;orthogonalLoop=1;jettySize=auto;html=1;" edge="1" parent="WIyWlLk6GJQsqaUBKTNV-1" source="LoI_WJfmr40ua0TBdkT--9" target="LoI_WJfmr40ua0TBdkT--11">
          <mxGeometry relative="1" as="geometry" />
        </mxCell>
        <mxCell id="LoI_WJfmr40ua0TBdkT--9" value="&lt;font style=&quot;font-size: 14px;&quot;&gt;absol=absol+h*f(a+h*i)&lt;/font&gt;" style="whiteSpace=wrap;html=1;strokeWidth=2;" vertex="1" parent="WIyWlLk6GJQsqaUBKTNV-1">
          <mxGeometry x="90" y="180" width="140" height="60" as="geometry" />
        </mxCell>
        <mxCell id="LoI_WJfmr40ua0TBdkT--14" value="" style="edgeStyle=orthogonalEdgeStyle;rounded=0;orthogonalLoop=1;jettySize=auto;html=1;" edge="1" parent="WIyWlLk6GJQsqaUBKTNV-1" source="LoI_WJfmr40ua0TBdkT--11" target="LoI_WJfmr40ua0TBdkT--13">
          <mxGeometry relative="1" as="geometry" />
        </mxCell>
        <mxCell id="LoI_WJfmr40ua0TBdkT--11" value="&lt;font style=&quot;font-size: 14px;&quot;&gt;конец цикла1&lt;/font&gt;" style="strokeWidth=2;html=1;shape=mxgraph.flowchart.loop_limit;whiteSpace=wrap;direction=west;" vertex="1" parent="WIyWlLk6GJQsqaUBKTNV-1">
          <mxGeometry x="90" y="270" width="140" height="60" as="geometry" />
        </mxCell>
        <mxCell id="LoI_WJfmr40ua0TBdkT--23" style="edgeStyle=orthogonalEdgeStyle;rounded=0;orthogonalLoop=1;jettySize=auto;html=1;exitX=0.5;exitY=1;exitDx=0;exitDy=0;entryX=0.5;entryY=0;entryDx=0;entryDy=0;fontSize=14;" edge="1" parent="WIyWlLk6GJQsqaUBKTNV-1" source="LoI_WJfmr40ua0TBdkT--13" target="LoI_WJfmr40ua0TBdkT--16">
          <mxGeometry relative="1" as="geometry" />
        </mxCell>
        <mxCell id="LoI_WJfmr40ua0TBdkT--13" value="&lt;font style=&quot;font-size: 14px;&quot;&gt;вывод absol&lt;/font&gt;" style="shape=parallelogram;perimeter=parallelogramPerimeter;whiteSpace=wrap;html=1;fixedSize=1;" vertex="1" parent="WIyWlLk6GJQsqaUBKTNV-1">
          <mxGeometry x="90" y="360" width="140" height="60" as="geometry" />
        </mxCell>
        <mxCell id="LoI_WJfmr40ua0TBdkT--19" value="" style="edgeStyle=orthogonalEdgeStyle;rounded=0;orthogonalLoop=1;jettySize=auto;html=1;" edge="1" parent="WIyWlLk6GJQsqaUBKTNV-1" source="LoI_WJfmr40ua0TBdkT--16" target="LoI_WJfmr40ua0TBdkT--18">
          <mxGeometry relative="1" as="geometry" />
        </mxCell>
        <mxCell id="LoI_WJfmr40ua0TBdkT--16" value="&lt;font style=&quot;font-size: 14px;&quot;&gt;faulter=Integral-absol&lt;/font&gt;" style="whiteSpace=wrap;html=1;" vertex="1" parent="WIyWlLk6GJQsqaUBKTNV-1">
          <mxGeometry x="310" y="90" width="140" height="60" as="geometry" />
        </mxCell>
        <mxCell id="LoI_WJfmr40ua0TBdkT--21" value="" style="edgeStyle=orthogonalEdgeStyle;rounded=0;orthogonalLoop=1;jettySize=auto;html=1;" edge="1" parent="WIyWlLk6GJQsqaUBKTNV-1" source="LoI_WJfmr40ua0TBdkT--18">
          <mxGeometry relative="1" as="geometry">
            <mxPoint x="380.0588235294117" y="270" as="targetPoint" />
          </mxGeometry>
        </mxCell>
        <mxCell id="LoI_WJfmr40ua0TBdkT--18" value="&lt;font style=&quot;font-size: 14px;&quot;&gt;вывод faulter&lt;/font&gt;" style="shape=parallelogram;perimeter=parallelogramPerimeter;whiteSpace=wrap;html=1;fixedSize=1;" vertex="1" parent="WIyWlLk6GJQsqaUBKTNV-1">
          <mxGeometry x="310" y="180" width="140" height="60" as="geometry" />
        </mxCell>
        <mxCell id="LoI_WJfmr40ua0TBdkT--20" value="&lt;font style=&quot;font-size: 14px;&quot;&gt;КОНЕЦ&lt;/font&gt;" style="strokeWidth=2;html=1;shape=mxgraph.flowchart.terminator;whiteSpace=wrap;" vertex="1" parent="WIyWlLk6GJQsqaUBKTNV-1">
          <mxGeometry x="310" y="270" width="140" height="60" as="geometry" />
        </mxCell>
      </root>
    </mxGraphModel>
  </diagram>
</mxfile>
